<svg id="Groupe_4852" data-name="Groupe 4852" xmlns="http://www.w3.org/2000/svg" xmlns:xlink="http://www.w3.org/1999/xlink" width="216.931" height="67.194" viewBox="0 0 216.931 67.194">
  <defs>
    <clipPath id="clip-path">
      <path id="Tracé_62381" data-name="Tracé 62381" d="M.363,195.537c0,7.86,12.032,5.411,12.032,8.766,0,1.029-.967,1.724-3.446,1.724a13.341,13.341,0,0,1-6.984-2.087L0,208.355a16.673,16.673,0,0,0,8.918,2.328c6.289,0,9.372-3.144,9.372-6.832,0-7.8-12-5.381-12-8.616,0-1.059.908-1.9,3.416-1.9a12.5,12.5,0,0,1,5.865,1.632l1.844-4.444a15.846,15.846,0,0,0-7.679-1.844c-6.287,0-9.372,3.084-9.372,6.863" transform="translate(0 -188.674)"/>
    </clipPath>
    <clipPath id="clip-path-2">
      <path id="Tracé_62382" data-name="Tracé 62382" d="M28.218,190.764v4.263H25.83v4.293h2.388v5.5c0,4.2,2.449,6.258,6.652,6.258a7.722,7.722,0,0,0,3.991-.938l-1.421-4.021a3.14,3.14,0,0,1-1.753.515,1.665,1.665,0,0,1-1.723-1.874V199.32h3.749v-4.293H33.962v-4.263Z" transform="translate(-25.83 -190.764)"/>
    </clipPath>
    <clipPath id="clip-path-3">
      <path id="Tracé_62383" data-name="Tracé 62383" d="M50.785,207c0-1,.666-1.663,2.509-1.663h2.479v1.421a2.829,2.829,0,0,1-2.841,1.9c-1.36,0-2.147-.7-2.147-1.663m-4.867-9.734,1.935,3.9A7.629,7.629,0,0,1,52.3,199.74c2.267,0,3.386.938,3.477,2.6H52.508c-5.078,0-7.286,1.874-7.286,4.9,0,2.841,2.177,5.049,6.107,5.049,2.388,0,4.021-.816,4.837-2.388v2.116h5.351v-9.1c0-5.2-3.053-7.558-8.373-7.558a13.771,13.771,0,0,0-7.226,1.9" transform="translate(-45.222 -195.357)"/>
    </clipPath>
    <clipPath id="clip-path-4">
      <path id="Tracé_62384" data-name="Tracé 62384" d="M77.713,197.593v-1.965H72.24v16.386h5.745v-7.528c0-2.873,1.6-4.051,3.93-4.051a10.461,10.461,0,0,1,1.3.091v-5.17a6.707,6.707,0,0,0-5.5,2.236" transform="translate(-72.24 -195.357)"/>
    </clipPath>
    <clipPath id="clip-path-5">
      <path id="Tracé_62385" data-name="Tracé 62385" d="M105.982,197.927a6,6,0,0,0-5.29-2.57,6.516,6.516,0,0,0-4.9,2v-1.724H90.322v16.386h5.744v-8.133c0-2.539,1.209-3.657,2.9-3.657,1.543,0,2.48,1,2.48,3.355v8.435h5.744v-8.133c0-2.539,1.209-3.657,2.872-3.657,1.512,0,2.479,1,2.479,3.355v8.435h5.744v-9.372c0-5.08-2.812-7.286-6.621-7.286a7.1,7.1,0,0,0-5.684,2.57" transform="translate(-90.322 -195.357)"/>
    </clipPath>
    <clipPath id="clip-path-6">
      <path id="Tracé_62386" data-name="Tracé 62386" d="M132.941,209.29h5.743V192.9h-5.743Zm-.636-21.253c0,1.724,1.391,3.053,3.508,3.053a3.187,3.187,0,0,0,3.506-3.144c0-1.722-1.39-2.962-3.506-2.962s-3.508,1.33-3.508,3.053" transform="translate(-132.305 -184.984)"/>
    </clipPath>
    <clipPath id="clip-path-7">
      <path id="Tracé_62387" data-name="Tracé 62387" d="M151.471,197.413v-1.784H146v16.386h5.744v-7.921c0-2.72,1.421-3.869,3.265-3.869,1.663,0,2.691,1,2.691,3.355v8.435h5.744v-9.372c0-5.08-2.932-7.286-6.772-7.286a7.036,7.036,0,0,0-5.2,2.056" transform="translate(-145.999 -195.357)"/>
    </clipPath>
    <clipPath id="clip-path-8">
      <path id="Tracé_62388" data-name="Tracé 62388" d="M174.586,190.764v4.263H172.2v4.293h2.388v5.5c0,4.2,2.449,6.258,6.652,6.258a7.721,7.721,0,0,0,3.99-.938l-1.421-4.021a3.138,3.138,0,0,1-1.753.515,1.665,1.665,0,0,1-1.724-1.874V199.32h3.749v-4.293H180.33v-4.263Z" transform="translate(-172.198 -190.764)"/>
    </clipPath>
  </defs>
  <g id="blockchain" transform="translate(0 0)">
    <path id="Tracé_62060" data-name="Tracé 62060" d="M120.161,237.414v7.56a5.532,5.532,0,0,1-2.982,5.12q-6.009,3.343-12.077,6.686a5.709,5.709,0,0,1-5.873-.03c-3.976-2.2-7.981-4.4-11.957-6.6a5.578,5.578,0,0,1-3.072-5.21V229.884a5.515,5.515,0,0,1,3.042-5.15c4.006-2.229,8.011-4.427,11.987-6.656a5.6,5.6,0,0,1,5.813-.03c4.036,2.229,8.1,4.457,12.138,6.716a5.438,5.438,0,0,1,2.952,5.06C120.191,232.324,120.161,234.884,120.161,237.414Zm-24.7,1.054c-.241-.3-.392-.482-.542-.663-1.355-1.807-2.741-3.614-4.1-5.421a1.137,1.137,0,0,0-1.325-.542,1.088,1.088,0,0,0-.783,1.175v8.734a1.1,1.1,0,0,0,1.084,1.2,1.133,1.133,0,0,0,1.144-1.235v-4.7c0-.181.03-.392.06-.693.211.271.361.452.512.632,1.325,1.777,2.681,3.524,4.006,5.3a1.2,1.2,0,0,0,1.416.6c.632-.211.753-.723.753-1.355v-8.764a1.114,1.114,0,0,0-1.114-1.024,1.072,1.072,0,0,0-1.084,1.054c-.03.452,0,.934,0,1.385C95.464,235.607,95.464,236.962,95.464,238.468Zm6.777-4.427h3.072c.873,0,1.385-.452,1.385-1.144-.03-.663-.512-1.084-1.355-1.084h-3.915c-1.054,0-1.446.392-1.446,1.416v8.343c0,.934.422,1.446,1.144,1.446.693,0,1.084-.512,1.114-1.416v-2.952c.12-.06.151-.09.181-.09h1.687c.482,0,.994.03,1.476,0a1.115,1.115,0,1,0-.03-2.229c-1.084-.03-2.168,0-3.283,0C102.241,235.516,102.241,234.824,102.241,234.04Zm11.2,0h1.084a1.115,1.115,0,1,0,0-2.229q-2.214-.045-4.427,0a1.1,1.1,0,0,0-1.175,1.145,1.135,1.135,0,0,0,1.2,1.114h1.024v7.74a1.133,1.133,0,0,0,1.145,1.235,1.1,1.1,0,0,0,1.084-1.2c.03-.452,0-.873,0-1.325C113.445,238.347,113.445,236.239,113.445,234.04Z" transform="translate(-68.467 -202.717)"/>
    <path id="Tracé_62061" data-name="Tracé 62061" d="M32.126,198.13c.512.3.934.512,1.355.753,1.9,1.084,3.765,2.138,5.662,3.253a3.556,3.556,0,0,0,3.915,0l6.325-3.614c.211-.121.392-.211.693-.361.03.422.06.783.06,1.144H81.519v-1.2c.271.151.482.241.663.331,2.078,1.175,4.186,2.349,6.265,3.584a3.73,3.73,0,0,0,4.156,0c2.018-1.2,4.1-2.349,6.144-3.524.211-.12.452-.241.753-.392,0,1.988.03,3.885-.03,5.813a1.677,1.677,0,0,1-.813,1.024c-2.138,1.265-4.277,2.47-6.445,3.674a.891.891,0,0,0-.542.9c.03,8.885.03,17.739,0,26.624a.953.953,0,0,0,.6.964c2.108,1.175,4.217,2.379,6.325,3.584,1.3.723,1.3,1.656,0,2.379-2.379,1.355-4.759,2.711-7.108,4.066a1.692,1.692,0,0,1-1.837.03c-2.379-1.385-4.789-2.741-7.168-4.1-1.265-.723-1.265-1.626,0-2.349,2.138-1.2,4.247-2.44,6.385-3.644a.89.89,0,0,0,.572-.9c-.03-8.885-.03-17.8,0-26.684a.852.852,0,0,0-.512-.873c-2.169-1.2-4.307-2.47-6.475-3.644a1.5,1.5,0,0,1-.9-1.566c.03-.572,0-1.175,0-1.807H50.106c0,.632-.03,1.235,0,1.867a1.459,1.459,0,0,1-.843,1.476c-2.168,1.235-4.337,2.47-6.536,3.7a.852.852,0,0,0-.512.873V236.2a.852.852,0,0,0,.512.873c2.138,1.2,4.277,2.409,6.385,3.644,1.325.753,1.325,1.657,0,2.44-2.349,1.355-4.729,2.68-7.048,4.036a1.679,1.679,0,0,1-1.9,0c-2.379-1.385-4.789-2.741-7.168-4.126-1.2-.693-1.2-1.6.03-2.289,2.138-1.2,4.247-2.44,6.385-3.644a.953.953,0,0,0,.572-.964c-.03-8.885-.03-17.739,0-26.624a.932.932,0,0,0-.542-.934c-2.108-1.175-4.217-2.409-6.355-3.584a1.683,1.683,0,0,1-.994-1.687C32.156,201.684,32.126,199.967,32.126,198.13Z" transform="translate(-32.054 -189.335)"/>
    <path id="Tracé_62062" data-name="Tracé 62062" d="M81.646,358.024H50.2c0,.663-.03,1.325,0,1.958a1.341,1.341,0,0,1-.723,1.325c-2.53,1.416-5.03,2.861-7.529,4.307a1.269,1.269,0,0,1-1.446-.03c-2.5-1.446-5-2.831-7.469-4.307a1.576,1.576,0,0,1-.723-1.084c-.06-1.867-.03-3.735-.03-5.692.271.151.482.241.663.362,2.078,1.2,4.186,2.349,6.265,3.584a3.687,3.687,0,0,0,4.1,0c2.259-1.325,4.548-2.59,6.9-3.946.03.422.03.783.06,1.175H81.646c.03-.361.03-.723.06-1.175.482.271.9.512,1.325.753,1.867,1.054,3.735,2.108,5.6,3.193a3.7,3.7,0,0,0,4.036.03c2.078-1.2,4.186-2.379,6.265-3.584.211-.12.392-.211.693-.361a4.265,4.265,0,0,1,.03.572v4.819a1.326,1.326,0,0,1-.663,1.295c-2.56,1.446-5.09,2.952-7.68,4.337a1.614,1.614,0,0,1-1.3,0c-2.59-1.416-5.15-2.861-7.65-4.367a1.745,1.745,0,0,1-.632-1.114A7.62,7.62,0,0,1,81.646,358.024Z" transform="translate(-32.181 -298.631)"/>
    <path id="Tracé_62063" data-name="Tracé 62063" d="M50.165,174.577c-.331.392-.512.813-.843.994-2.56,1.506-5.12,2.982-7.74,4.4a1.616,1.616,0,0,1-1.3-.03c-2.56-1.416-5.09-2.861-7.62-4.337a1.106,1.106,0,0,1-.03-2.048c2.53-1.476,5.09-2.952,7.68-4.367a1.615,1.615,0,0,1,1.3,0c2.59,1.416,5.12,2.891,7.68,4.367C49.653,173.763,49.834,174.155,50.165,174.577Z" transform="translate(-31.962 -169.034)"/>
    <path id="Tracé_62064" data-name="Tracé 62064" d="M205.093,180.2c-.271-.12-.542-.211-.783-.331-2.47-1.385-4.909-2.8-7.349-4.186-1.114-.632-1.114-1.6,0-2.229,2.44-1.416,4.909-2.8,7.349-4.217a1.471,1.471,0,0,1,1.566-.03c2.5,1.446,5,2.831,7.469,4.277a1.14,1.14,0,0,1,0,2.138c-2.5,1.446-5.03,2.891-7.529,4.307C205.6,180.022,205.364,180.082,205.093,180.2Z" transform="translate(-146.683 -168.998)"/>
  </g>
  <g id="Groupe_14279" data-name="Groupe 14279" transform="translate(76.932 21)">
    <g id="Groupe_4871" data-name="Groupe 4871" transform="translate(0 2.721)">
      <g id="Groupe_4870" data-name="Groupe 4870" transform="translate(0 0)" clip-path="url(#clip-path)">
        <rect id="Rectangle_6103" data-name="Rectangle 6103" width="27.963" height="26.379" transform="translate(-9.006 17.327) rotate(-62.536)"/>
      </g>
    </g>
    <g id="Groupe_4873" data-name="Groupe 4873" transform="translate(19.046 4.262)">
      <g id="Groupe_4872" data-name="Groupe 4872" transform="translate(0)" clip-path="url(#clip-path-2)">
        <rect id="Rectangle_6104" data-name="Rectangle 6104" width="24.036" height="20.931" transform="translate(-8.314 15.995) rotate(-62.536)"/>
      </g>
    </g>
    <g id="Groupe_4875" data-name="Groupe 4875" transform="translate(33.344 7.649)">
      <g id="Groupe_4874" data-name="Groupe 4874" transform="translate(0)" clip-path="url(#clip-path-3)">
        <rect id="Rectangle_6105" data-name="Rectangle 6105" width="22.537" height="22.266" transform="translate(-6.928 13.329) rotate(-62.536)"/>
      </g>
    </g>
    <g id="Groupe_4877" data-name="Groupe 4877" transform="translate(53.266 7.649)">
      <g id="Groupe_4876" data-name="Groupe 4876" transform="translate(0)" clip-path="url(#clip-path-4)">
        <rect id="Rectangle_6106" data-name="Rectangle 6106" width="19.842" height="17.42" transform="matrix(0.461, -0.887, 0.887, 0.461, -6.817, 13.114)"/>
      </g>
    </g>
    <g id="Groupe_4879" data-name="Groupe 4879" transform="translate(66.599 7.649)">
      <g id="Groupe_4878" data-name="Groupe 4878" transform="translate(0)" clip-path="url(#clip-path-5)">
        <rect id="Rectangle_6107" data-name="Rectangle 6107" width="27.677" height="32.495" transform="matrix(0.461, -0.887, 0.887, 0.461, -6.817, 13.114)"/>
      </g>
    </g>
    <g id="Groupe_4881" data-name="Groupe 4881" transform="translate(97.555)">
      <g id="Groupe_4880" data-name="Groupe 4880" transform="translate(0)" clip-path="url(#clip-path-6)">
        <rect id="Rectangle_6108" data-name="Rectangle 6108" width="24.801" height="17.433" transform="translate(-9.946 19.136) rotate(-62.536)"/>
      </g>
    </g>
    <g id="Groupe_4883" data-name="Groupe 4883" transform="translate(107.652 7.649)">
      <g id="Groupe_4882" data-name="Groupe 4882" transform="translate(0)" clip-path="url(#clip-path-7)">
        <rect id="Rectangle_6109" data-name="Rectangle 6109" width="22.825" height="23.16" transform="matrix(0.461, -0.887, 0.887, 0.461, -6.817, 13.114)"/>
      </g>
    </g>
    <g id="Groupe_4885" data-name="Groupe 4885" transform="translate(126.97 4.262)">
      <g id="Groupe_4884" data-name="Groupe 4884" transform="translate(0)" clip-path="url(#clip-path-8)">
        <rect id="Rectangle_6110" data-name="Rectangle 6110" width="24.036" height="20.931" transform="matrix(0.461, -0.887, 0.887, 0.461, -8.314, 15.995)"/>
      </g>
    </g>
  </g>
</svg>
